<svg width="188" height="32" viewBox="0 0 188 32" fill="none" xmlns="http://www.w3.org/2000/svg">
<g filter="url(#filter0_d_6_24)">
<path d="M4.944 0.599998H21.072C21.3067 0.599998 21.5093 0.685332 21.68 0.855999C21.8507 1.02667 21.936 1.22933 21.936 1.464V6.328C21.936 6.56267 21.8507 6.76533 21.68 6.936C21.5093 7.10667 21.3067 7.192 21.072 7.192H11.92V9.56H20.432C20.6667 9.56 20.8693 9.64533 21.04 9.816C21.2107 9.98667 21.296 10.1893 21.296 10.424V15.256C21.296 15.4907 21.2107 15.6933 21.04 15.864C20.8693 16.0347 20.6667 16.12 20.432 16.12H11.92V22.136C11.92 22.3707 11.8347 22.5733 11.664 22.744C11.4933 22.9147 11.2907 23 11.056 23H4.944C4.70933 23 4.50667 22.9147 4.336 22.744C4.16533 22.5733 4.08 22.3707 4.08 22.136V1.464C4.08 1.22933 4.16533 1.02667 4.336 0.855999C4.50667 0.685332 4.70933 0.599998 4.944 0.599998Z" fill="#FCD817"/>
<path d="M38.5788 0.599998H44.8508C45.0854 0.599998 45.2881 0.685332 45.4588 0.855999C45.6294 1.02667 45.7148 1.22933 45.7148 1.464V14.328C45.7148 17.3147 44.7868 19.5653 42.9308 21.08C41.0748 22.5733 38.5468 23.32 35.3468 23.32C32.1681 23.32 29.6401 22.5733 27.7628 21.08C25.9068 19.5867 24.9788 17.336 24.9788 14.328V1.464C24.9788 1.22933 25.0641 1.02667 25.2348 0.855999C25.4054 0.685332 25.6081 0.599998 25.8428 0.599998H32.1148C32.3494 0.599998 32.5521 0.685332 32.7228 0.855999C32.8934 1.02667 32.9788 1.22933 32.9788 1.464V14.424C32.9788 16.0667 33.7681 16.888 35.3468 16.888C36.9254 16.888 37.7148 16.0667 37.7148 14.424V1.464C37.7148 1.22933 37.8001 1.02667 37.9708 0.855999C38.1414 0.685332 38.3441 0.599998 38.5788 0.599998ZM150.729 16.76H160.585C160.819 16.76 161.022 16.8453 161.193 17.016C161.363 17.1867 161.449 17.3893 161.449 17.624V22.136C161.449 22.3707 161.363 22.5733 161.193 22.744C161.022 22.9147 160.819 23 160.585 23H143.913C143.678 23 143.475 22.9147 143.305 22.744C143.134 22.5733 143.049 22.3707 143.049 22.136V1.464C143.049 1.22933 143.134 1.02667 143.305 0.855999C143.475 0.685332 143.678 0.599998 143.913 0.599998H160.329C160.563 0.599998 160.766 0.685332 160.937 0.855999C161.107 1.02667 161.193 1.22933 161.193 1.464V5.976C161.193 6.21067 161.107 6.41333 160.937 6.584C160.766 6.75467 160.563 6.84 160.329 6.84H150.729V8.856H159.625C159.859 8.856 160.062 8.94133 160.233 9.112C160.403 9.28267 160.489 9.48533 160.489 9.72V13.88C160.489 14.1147 160.403 14.3173 160.233 14.488C160.062 14.6587 159.859 14.744 159.625 14.744H150.729V16.76Z" fill="#09EE12"/>
<path d="M63.0528 0.599998H68.8448C69.0794 0.599998 69.2821 0.685332 69.4528 0.855999C69.6234 1.02667 69.7088 1.22933 69.7088 1.464V22.136C69.7088 22.3707 69.6234 22.5733 69.4528 22.744C69.2821 22.9147 69.0794 23 68.8448 23H63.7888C63.2341 23 62.7968 22.7547 62.4768 22.264L57.0688 14.104V22.136C57.0688 22.3707 56.9834 22.5733 56.8128 22.744C56.6421 22.9147 56.4394 23 56.2048 23H50.4128C50.1781 23 49.9754 22.9147 49.8048 22.744C49.6341 22.5733 49.5488 22.3707 49.5488 22.136V1.464C49.5488 1.22933 49.6341 1.02667 49.8048 0.855999C49.9754 0.685332 50.1781 0.599998 50.4128 0.599998H55.4688C56.0661 0.599998 56.5034 0.845332 56.7808 1.336L62.1888 10.2V1.464C62.1888 1.22933 62.2741 1.02667 62.4448 0.855999C62.6154 0.685332 62.8181 0.599998 63.0528 0.599998ZM140.56 21.944C140.624 22.0507 140.656 22.1893 140.656 22.36C140.656 22.5093 140.581 22.6587 140.432 22.808C140.304 22.936 140.144 23 139.952 23H132.752C132.176 23 131.738 22.7547 131.44 22.264L128.656 17.976L126 22.264C125.701 22.7547 125.264 23 124.688 23H117.712C117.52 23 117.349 22.936 117.2 22.808C117.072 22.6587 117.008 22.5093 117.008 22.36C117.008 22.1893 117.04 22.0507 117.104 21.944L123.824 11.544L117.776 1.656C117.712 1.528 117.68 1.38933 117.68 1.24C117.68 1.09067 117.744 0.951999 117.872 0.823999C118.021 0.674665 118.192 0.599998 118.384 0.599998H125.328C125.925 0.599998 126.373 0.866666 126.672 1.4L128.912 5.304L131.344 1.4C131.642 0.866666 132.09 0.599998 132.688 0.599998H139.312C139.504 0.599998 139.664 0.674665 139.792 0.823999C139.941 0.951999 140.016 1.10133 140.016 1.272C140.016 1.42133 139.984 1.54933 139.92 1.656L133.744 11.448L140.56 21.944Z" fill="#F63636"/>
<path d="M84.0065 0.599998H93.5425C96.6145 0.599998 99.0145 1.26133 100.743 2.584C102.471 3.90667 103.335 5.85867 103.335 8.44C103.335 11.0213 102.471 12.9307 100.743 14.168C99.0358 15.4053 96.6358 16.024 93.5425 16.024H91.4625V22.136C91.4625 22.3707 91.3772 22.5733 91.2065 22.744C91.0358 22.9147 90.8332 23 90.5985 23H84.0065C83.7718 23 83.5692 22.9147 83.3985 22.744C83.2278 22.5733 83.1425 22.3707 83.1425 22.136V1.464C83.1425 1.22933 83.2278 1.02667 83.3985 0.855999C83.5692 0.685332 83.7718 0.599998 84.0065 0.599998ZM91.3025 6.552V10.104H93.5425C93.9265 10.104 94.2678 9.96533 94.5665 9.688C94.8652 9.38933 95.0145 8.97333 95.0145 8.44C95.0145 7.90667 94.8972 7.45867 94.6625 7.096C94.4278 6.73333 94.0545 6.552 93.5425 6.552H91.3025Z" fill="#0968F7"/>
<path d="M113.753 23H107.225C106.991 23 106.788 22.9147 106.617 22.744C106.447 22.5733 106.361 22.3707 106.361 22.136V1.464C106.361 1.22933 106.447 1.02667 106.617 0.855999C106.788 0.685332 106.991 0.599998 107.225 0.599998H113.753C113.988 0.599998 114.191 0.685332 114.361 0.855999C114.532 1.02667 114.617 1.22933 114.617 1.464V22.136C114.617 22.3707 114.532 22.5733 114.361 22.744C114.191 22.9147 113.988 23 113.753 23ZM173.427 16.44H182.291C182.525 16.44 182.728 16.5253 182.899 16.696C183.069 16.8667 183.155 17.0693 183.155 17.304V22.136C183.155 22.3707 183.069 22.5733 182.899 22.744C182.728 22.9147 182.525 23 182.291 23H166.163C165.928 23 165.725 22.9147 165.555 22.744C165.384 22.5733 165.299 22.3707 165.299 22.136V1.464C165.299 1.22933 165.384 1.02667 165.555 0.855999C165.725 0.685332 165.928 0.599998 166.163 0.599998H172.563C172.797 0.599998 173 0.685332 173.171 0.855999C173.341 1.02667 173.427 1.22933 173.427 1.464V16.44Z" fill="#FCD817"/>
</g>
<defs>
<filter id="filter0_d_6_24" x="0.0800018" y="0.600006" width="187.075" height="30.72" filterUnits="userSpaceOnUse" color-interpolation-filters="sRGB">
<feFlood flood-opacity="0" result="BackgroundImageFix"/>
<feColorMatrix in="SourceAlpha" type="matrix" values="0 0 0 0 0 0 0 0 0 0 0 0 0 0 0 0 0 0 127 0" result="hardAlpha"/>
<feOffset dy="4"/>
<feGaussianBlur stdDeviation="2"/>
<feComposite in2="hardAlpha" operator="out"/>
<feColorMatrix type="matrix" values="0 0 0 0 0 0 0 0 0 0 0 0 0 0 0 0 0 0 0.25 0"/>
<feBlend mode="normal" in2="BackgroundImageFix" result="effect1_dropShadow_6_24"/>
<feBlend mode="normal" in="SourceGraphic" in2="effect1_dropShadow_6_24" result="shape"/>
</filter>
</defs>
</svg>
